<mxfile host="app.diagrams.net">
  <diagram name="BeautifulPass Use Case Diagram" id="use_case_diagram_2">
    <mxGraphModel dx="1076" dy="600" grid="1" gridSize="10" guides="1" tooltips="1" connect="1" arrows="1" fold="1"
      page="1" pageScale="1" pageWidth="850" pageHeight="1100" math="0" shadow="0">
      <root>
        <!-- Identificadores base -->
        <mxCell id="0"/>
        <mxCell id="1" parent="0"/>
        
        <!-- Fronteira do sistema -->
        <mxCell id="2" value="&lt;&lt;Sistema&gt;&gt;&lt;br&gt;BeautifulPass"
                style="swimlane;horizontal=1;startSize=30;" vertex="1" parent="1">
          <mxGeometry x="100" y="20" width="900" height="400" as="geometry"/>
        </mxCell>
        
        <!-- Atores -->
        <mxCell id="3" value="Usuário"
                style="shape=umlActor;verticalLabelPosition=bottom;verticalAlign=top;"
                vertex="1" parent="1">
          <mxGeometry x="20" y="100" width="30" height="60" as="geometry"/>
        </mxCell>
        <mxCell id="4" value="Administrador"
                style="shape=umlActor;verticalLabelPosition=bottom;verticalAlign=top;"
                vertex="1" parent="1">
          <mxGeometry x="20" y="280" width="30" height="60" as="geometry"/>
        </mxCell>
        
        <!-- Casos de uso dentro da fronteira -->
        <mxCell id="5"  value="Cadastrar-se"        style="rounded=1;whiteSpace=wrap;html=1;"
                vertex="1" parent="2">
          <mxGeometry x="20"  y="20"  width="180" height="50" as="geometry"/>
        </mxCell>
        <mxCell id="6"  value="Autenticar-se"       style="rounded=1;whiteSpace=wrap;html=1;"
                vertex="1" parent="2">
          <mxGeometry x="220" y="20"  width="180" height="50" as="geometry"/>
        </mxCell>
        <mxCell id="7"  value="Visualizar Perfil"   style="rounded=1;whiteSpace=wrap;html=1;"
                vertex="1" parent="2">
          <mxGeometry x="420" y="20"  width="180" height="50" as="geometry"/>
        </mxCell>
        <mxCell id="8"  value="Buscar Estabelecimento" style="rounded=1;whiteSpace=wrap;html=1;"
                vertex="1" parent="2">
          <mxGeometry x="20"  y="120" width="180" height="50" as="geometry"/>
        </mxCell>
        <mxCell id="9"  value="Realizar Check-in"   style="rounded=1;whiteSpace=wrap;html=1;"
                vertex="1" parent="2">
          <mxGeometry x="220" y="120" width="180" height="50" as="geometry"/>
        </mxCell>
        <mxCell id="10" value="Ver Histórico de Check-ins" style="rounded=1;whiteSpace=wrap;html=1;"
                vertex="1" parent="2">
          <mxGeometry x="420" y="120" width="180" height="50" as="geometry"/>
        </mxCell>
        <mxCell id="11" value="Ver Total de Check-ins" style="rounded=1;whiteSpace=wrap;html=1;"
                vertex="1" parent="2">
          <mxGeometry x="620" y="120" width="180" height="50" as="geometry"/>
        </mxCell>
        <mxCell id="12" value="Validar distância de 100m para check-in" style="rounded=1;whiteSpace=wrap;html=1;"
                vertex="1" parent="2">
          <mxGeometry x="220" y="190" width="180" height="50" as="geometry"/>
        </mxCell>
        <mxCell id="13" value="Impedir 2 check-ins no mesmo dia" style="rounded=1;whiteSpace=wrap;html=1;"
                vertex="1" parent="2">
          <mxGeometry x="420" y="190" width="180" height="50" as="geometry"/>
        </mxCell>
        <mxCell id="14" value="Validar check-in em até 20 min" style="rounded=1;whiteSpace=wrap;html=1;"
                vertex="1" parent="2">
          <mxGeometry x="620" y="190" width="180" height="50" as="geometry"/>
        </mxCell>
        <mxCell id="15" value="Cadastrar Barbearia/Salão" style="rounded=1;whiteSpace=wrap;html=1;"
                vertex="1" parent="2">
          <mxGeometry x="220" y="250" width="180" height="50" as="geometry"/>
        </mxCell>
        <mxCell id="16" value="Validar Check-in" style="rounded=1;whiteSpace=wrap;html=1;"
                vertex="1" parent="2">
          <mxGeometry x="420" y="250" width="180" height="50" as="geometry"/>
        </mxCell>
        
        <!-- Arestas (relações) -->
        <!-- Usuário -->
        <mxCell id="17" edge="1" parent="1" source="3" target="5"
                style="edgeStyle=orthogonalEdgeStyle;rounded=0;orthogonalLoop=1;">
          <mxGeometry relative="1" as="geometry"/>
        </mxCell>
        <mxCell id="18" edge="1" parent="1" source="3" target="6"
                style="edgeStyle=orthogonalEdgeStyle;rounded=0;orthogonalLoop=1;">
          <mxGeometry relative="1" as="geometry"/>
        </mxCell>
        <mxCell id="19" edge="1" parent="1" source="3" target="7"
                style="edgeStyle=orthogonalEdgeStyle;rounded=0;orthogonalLoop=1;">
          <mxGeometry relative="1" as="geometry"/>
        </mxCell>
        <mxCell id="20" edge="1" parent="1" source="3" target="8"
                style="edgeStyle=orthogonalEdgeStyle;rounded=0;orthogonalLoop=1;">
          <mxGeometry relative="1" as="geometry"/>
        </mxCell>
        <mxCell id="21" edge="1" parent="1" source="3" target="9"
                style="edgeStyle=orthogonalEdgeStyle;rounded=0;orthogonalLoop=1;">
          <mxGeometry relative="1" as="geometry"/>
        </mxCell>
        <mxCell id="22" edge="1" parent="1" source="3" target="10"
                style="edgeStyle=orthogonalEdgeStyle;rounded=0;orthogonalLoop=1;">
          <mxGeometry relative="1" as="geometry"/>
        </mxCell>
        <mxCell id="23" edge="1" parent="1" source="3" target="11"
                style="edgeStyle=orthogonalEdgeStyle;rounded=0;orthogonalLoop=1;">
          <mxGeometry relative="1" as="geometry"/>
        </mxCell>
        
        <!-- Administrador -->
        <mxCell id="24" edge="1" parent="1" source="4" target="15"
                style="edgeStyle=orthogonalEdgeStyle;rounded=0;orthogonalLoop=1;">
          <mxGeometry relative="1" as="geometry"/>
        </mxCell>
        <mxCell id="25" edge="1" parent="1" source="4" target="16"
                style="edgeStyle=orthogonalEdgeStyle;rounded=0;orthogonalLoop=1;">
          <mxGeometry relative="1" as="geometry"/>
        </mxCell>
        
      </root>
    </mxGraphModel>
  </diagram>
</mxfile>
